<svg xmlns="http://www.w3.org/2000/svg" width="2070" height="582" viewBox="0 0 2070 582" version="1.1"><path d="" stroke="none" fill="#086474" fill-rule="evenodd"/><path d="M 246.304 1.956 C 244.547 3.028, 242.415 4.963, 241.567 6.257 C 240.720 7.551, 231.727 33.110, 221.583 63.055 C 211.439 93, 202.390 119.639, 201.474 122.254 L 199.809 127.008 190.655 119.197 C 154.228 88.114, 114.614 67.591, 70.500 56.946 C 50.287 52.069, 35.178 49.952, 10.250 48.504 L 0 47.908 0 96.798 L 0 145.687 14.250 146.878 C 54.075 150.208, 89.012 163.737, 119.883 187.786 C 155.357 215.420, 181.395 258.028, 189.946 302.432 C 191.692 311.501, 193.921 331.272, 193.984 338.250 C 193.999 339.905, 199.292 340, 291 340 C 382.708 340, 388.001 339.905, 388.016 338.250 C 388.025 337.288, 388.463 331.295, 388.990 324.932 C 395.663 244.422, 449.483 177.665, 526.500 154.366 C 539.024 150.577, 552.273 148.172, 567.750 146.878 L 582 145.687 582 96.798 L 582 47.908 571.750 48.504 C 546.822 49.952, 531.713 52.069, 511.500 56.946 C 467.317 67.607, 427.301 88.343, 391.207 119.281 C 386.095 123.662, 381.787 127.079, 381.633 126.873 C 381.479 126.668, 372.448 100.175, 361.565 68 C 350.681 35.825, 341.024 8.150, 340.104 6.500 C 336.528 0.085, 335.900 0.003, 290.500 0.005 C 251.623 0.007, 249.335 0.108, 246.304 1.956 M 1736 22.678 C 1605.407 29.983, 1498.636 130.275, 1483.475 259.878 C 1481.584 276.043, 1481.584 305.957, 1483.475 322.122 C 1493.947 411.644, 1549.211 490.507, 1629.810 530.945 C 1664.814 548.507, 1697.520 556.977, 1740.250 559.546 L 1751 560.192 1751 508.096 L 1751 456 1745.724 456 C 1739.187 456, 1725.928 454.385, 1716 452.379 C 1697.127 448.566, 1674.316 438.742, 1656.806 426.885 C 1643.713 418.020, 1622.422 396.537, 1613.807 383.500 C 1580.112 332.510, 1576.049 271.518, 1602.750 217.500 C 1610.807 201.201, 1619.321 189.594, 1633.958 174.958 C 1649.013 159.904, 1659.821 151.960, 1676.818 143.459 C 1697.777 132.976, 1725.308 126, 1745.724 126 L 1751 126 1751 74 L 1751 22 1746.250 22.185 C 1743.638 22.287, 1739.025 22.508, 1736 22.678 M 934.103 30.012 C 897.836 39.307, 865.836 54.267, 836 75.874 C 763.161 128.624, 725.190 203.205, 716.035 311.500 C 714.718 327.083, 714.720 375.585, 716.039 393.500 C 719.679 442.943, 730.442 502.474, 743.929 547.763 L 746.085 555 794.542 555 L 843 555 843 544.054 C 843 538.034, 843.474 527.347, 844.054 520.304 C 851.433 430.699, 882.631 378.998, 937.463 365.512 C 946.395 363.315, 949.041 363.357, 958.622 365.848 C 983.474 372.307, 1004.313 387.136, 1018.498 408.453 C 1038.431 438.411, 1049.960 482.793, 1051.697 536.250 L 1052.306 555 1100.606 555 L 1148.906 555 1150.947 548.250 C 1155.234 534.078, 1163.180 501.338, 1166.948 482.317 C 1177.341 429.863, 1181.692 378.680, 1179.884 330.134 C 1177.174 257.338, 1159.757 195.702, 1128.276 147.500 C 1096.370 98.647, 1045.899 59.288, 988.532 38.524 C 975.972 33.978, 950.681 26.953, 947.207 27.045 C 946.268 27.071, 940.371 28.405, 934.103 30.012 M 1458.731 31.058 C 1396.138 36.616, 1338.895 61.724, 1291.908 104.230 C 1236.765 154.114, 1206.590 224.732, 1199.924 319.500 C 1198.462 340.293, 1199.259 386.955, 1201.453 409 C 1205.778 452.442, 1216.906 510.231, 1227.739 545.500 L 1229.582 551.500 1276.662 551.760 L 1323.743 552.019 1324.421 536.760 C 1328.307 449.315, 1351.964 395.718, 1396.153 374.249 C 1409.526 367.752, 1428.896 363, 1442.006 363 C 1445.165 363, 1449.156 362.719, 1450.875 362.375 L 1454 361.750 1454 314.375 L 1454 267 1445.244 267 C 1440.428 267, 1430.778 267.668, 1423.799 268.484 C 1377.135 273.943, 1338.272 291.380, 1306.606 321.066 L 1298.712 328.466 1299.264 306.483 C 1300.042 275.553, 1303.691 256.347, 1312.810 235.196 C 1328.229 199.430, 1360.689 165.234, 1396.101 147.449 C 1413.364 138.779, 1475.131 122.320, 1482.101 124.532 C 1483.948 125.118, 1484 123.836, 1484 77.567 L 1484 30 1475.750 30.139 C 1471.213 30.216, 1463.554 30.629, 1458.731 31.058 M 2044 31.105 C 1960.768 38.375, 1881.834 84.199, 1837.474 151 C 1810.320 191.892, 1794.682 238.267, 1787.297 299.801 C 1784.773 320.835, 1784.785 385.204, 1787.317 409.500 C 1791.958 454.020, 1798.629 489.822, 1810.654 534.750 L 1815.270 552 1862.635 552 L 1910 552 1910 545.080 C 1910 523.013, 1914.041 488.113, 1918.983 467.500 C 1931.779 414.129, 1956.751 381.524, 1994.260 369.213 C 2004.848 365.738, 2019.740 363, 2028.051 363 C 2031.186 363, 2035.156 362.719, 2036.875 362.375 L 2040 361.750 2040 314.375 L 2040 267 2031.244 267 C 2026.428 267, 2016.670 267.681, 2009.559 268.512 C 1963.120 273.945, 1924.094 291.431, 1892.885 320.790 L 1884.733 328.459 1885.257 305.979 C 1885.861 280.092, 1887.806 266.750, 1893.580 248.887 C 1898.097 234.918, 1906.921 217.470, 1915.766 205.024 C 1934.381 178.828, 1968.197 151.367, 1992.500 142.711 C 2013.799 135.125, 2054.420 124.912, 2064.250 124.672 L 2070 124.532 2070 77.266 L 2070 30 2061.750 30.138 C 2057.213 30.213, 2049.225 30.648, 2044 31.105 M 945.500 130.485 C 944.950 130.676, 939.325 132.493, 933 134.521 C 902.336 144.357, 868.714 170.966, 847.107 202.500 C 825.934 233.402, 817 265.381, 817 310.270 L 817 326.328 823.750 319.864 C 850.632 294.122, 884.263 276.719, 922.894 268.563 C 941.880 264.554, 947.144 264.408, 964.641 267.407 C 988.125 271.431, 1004.641 276.771, 1024.500 286.760 C 1041.538 295.330, 1056.652 305.975, 1070.628 319.251 L 1078 326.254 1078 309.733 C 1078 276.652, 1073.943 254.501, 1063.328 229.623 C 1049.255 196.641, 1019.099 164.074, 984.235 144.206 C 972.021 137.246, 949.249 129.179, 945.500 130.485 M 287.619 140.059 C 282.673 141.498, 280.086 144.924, 277.508 153.452 C 269.087 181.302, 245 268.430, 245 271.041 C 245 275.029, 247.474 279.258, 251.040 281.364 C 253.469 282.800, 258.366 283, 291 283 C 323.634 283, 328.531 282.800, 330.960 281.364 C 334.545 279.247, 337 275.024, 337 270.975 C 337 266.910, 303.492 148.399, 301.470 145.313 C 298.510 140.796, 292.684 138.586, 287.619 140.059 M 30 339.252 L 30 387.788 39.250 388.464 C 82.145 391.600, 110.037 406.139, 129.485 435.500 C 150.310 466.939, 162.946 517.568, 162.990 569.750 L 163 582 212.157 582 L 261.314 582 260.676 561.250 C 257.904 471.039, 233.531 400.683, 188.593 353.177 C 152.935 315.481, 101.789 293.321, 45.750 291.288 L 30 290.716 30 339.252 M 524.500 291.673 C 484.809 296.610, 454.516 306.929, 427.500 324.715 C 361.678 368.050, 324.630 450.408, 321.320 560.750 L 320.683 582 369.842 582 L 419 582 419 569.161 C 419 544.770, 423.122 512.455, 429.097 490 C 441.045 445.102, 461.340 415.926, 491 401.009 C 505.052 393.943, 521.131 390.045, 542.750 388.464 L 552 387.788 552 339.394 L 552 291 539.750 291.150 C 533.013 291.232, 526.150 291.468, 524.500 291.673" stroke="none" fill="#046474" fill-rule="evenodd"/></svg>